<mxfile host="Electron" agent="Mozilla/5.0 (Macintosh; Intel Mac OS X 10_15_7) AppleWebKit/537.36 (KHTML, like Gecko) draw.io/24.7.17 Chrome/128.0.6613.36 Electron/32.0.1 Safari/537.36" version="24.7.17">
  <diagram name="Page-1" id="xJSioLv9QGmSh3TYf1JC">
    <mxGraphModel dx="1114" dy="821" grid="1" gridSize="10" guides="1" tooltips="1" connect="1" arrows="1" fold="1" page="1" pageScale="1" pageWidth="827" pageHeight="1169" math="0" shadow="0">
      <root>
        <mxCell id="0" />
        <mxCell id="1" parent="0" />
        <mxCell id="gN5UiL8UKebrmMT20m0f-1" value="&lt;div style=&quot;background-color:#ffffff;color:#080808&quot;&gt;&lt;pre style=&quot;font-family:&#39;IBM Plex Mono&#39;,monospace;font-size:9.8pt;&quot;&gt;&lt;span style=&quot;color:#9e880d;&quot;&gt;@get:Rule&lt;/span&gt;&lt;/pre&gt;&lt;/div&gt;" style="text;whiteSpace=wrap;html=1;" vertex="1" parent="1">
          <mxGeometry x="110" y="90" width="80" height="40" as="geometry" />
        </mxCell>
        <mxCell id="gN5UiL8UKebrmMT20m0f-2" value="" style="shape=curlyBracket;whiteSpace=wrap;html=1;rounded=1;labelPosition=left;verticalLabelPosition=middle;align=right;verticalAlign=middle;rotation=-90;" vertex="1" parent="1">
          <mxGeometry x="121.5" y="130.5" width="20" height="19" as="geometry" />
        </mxCell>
        <mxCell id="gN5UiL8UKebrmMT20m0f-3" value="" style="shape=curlyBracket;whiteSpace=wrap;html=1;rounded=1;labelPosition=left;verticalLabelPosition=middle;align=right;verticalAlign=middle;rotation=90;" vertex="1" parent="1">
          <mxGeometry x="154.5" y="79.5" width="20" height="30" as="geometry" />
        </mxCell>
        <mxCell id="gN5UiL8UKebrmMT20m0f-6" value="사용 지점 대상" style="text;html=1;align=center;verticalAlign=middle;whiteSpace=wrap;rounded=0;" vertex="1" parent="1">
          <mxGeometry x="91.5" y="149.5" width="80" height="30" as="geometry" />
        </mxCell>
        <mxCell id="gN5UiL8UKebrmMT20m0f-7" value="애너테이션 이름" style="text;html=1;align=center;verticalAlign=middle;whiteSpace=wrap;rounded=0;" vertex="1" parent="1">
          <mxGeometry x="121.5" y="60" width="90" height="30" as="geometry" />
        </mxCell>
      </root>
    </mxGraphModel>
  </diagram>
</mxfile>
